<svg xmlns="http://www.w3.org/2000/svg" xmlns:xlink="http://www.w3.org/1999/xlink" width="500" zoomAndPan="magnify" viewBox="0 0 375 374.999991" height="500" preserveAspectRatio="xMidYMid meet" version="1.0"><defs><g/><clipPath id="3a0488a2a9"><path d="M 72 112.808594 L 140 112.808594 L 140 190 L 72 190 Z M 72 112.808594 " clip-rule="nonzero"/></clipPath><clipPath id="dc2e59e050"><path d="M 132 119 L 163.496094 119 L 163.496094 165 L 132 165 Z M 132 119 " clip-rule="nonzero"/></clipPath><clipPath id="d98b019954"><path d="M 329 143.695312 L 344.46875 143.695312 L 344.46875 169.195312 L 329 169.195312 Z M 329 143.695312 " clip-rule="nonzero"/></clipPath><clipPath id="0fec18a6b7"><path d="M 318.21875 145 L 330 145 L 330 165 L 318.21875 165 Z M 318.21875 145 " clip-rule="nonzero"/></clipPath><clipPath id="ca09d01049"><path d="M 320.863281 145.246094 C 320.617188 146.472656 321.230469 147.734375 322.113281 148.617188 C 322.996094 149.5 324.125 150.085938 325.203125 150.71875 C 326.28125 151.347656 327.355469 152.066406 328.035156 153.113281 C 328.625 154.027344 328.863281 155.121094 328.988281 156.203125 C 329.140625 157.507812 329.117188 158.882812 328.703125 160.117188 C 328.398438 159.375 328.003906 158.664062 327.554688 158 C 326.671875 156.691406 325.585938 155.539062 324.507812 154.390625 C 323.242188 153.050781 321.980469 151.710938 320.71875 150.371094 C 322.023438 152.824219 324.050781 154.796875 325.765625 156.984375 C 327.476562 159.171875 328.9375 161.78125 328.777344 164.558594 C 328.652344 163.136719 327.5 162.011719 326.25 161.324219 C 325 160.640625 323.601562 160.257812 322.367188 159.539062 C 320.039062 158.175781 318.472656 155.59375 318.351562 152.902344 C 318.226562 150.179688 319.472656 147.589844 320.863281 145.246094 Z M 320.863281 145.246094 " clip-rule="nonzero"/></clipPath></defs><rect x="-37.5" width="450" fill="#ffffff" y="-37.499999" height="449.999989" fill-opacity="1"/><rect x="-37.5" width="450" fill="#ffffff" y="-37.499999" height="449.999989" fill-opacity="1"/><g fill="#215ba3" fill-opacity="1"><g transform="translate(126.530934, 203.538901)"><g><path d="M 53.140625 -46.328125 C 53.859375 -47.117188 54.578125 -47.660156 55.296875 -47.953125 C 56.015625 -48.242188 56.695312 -48.390625 57.34375 -48.390625 C 58.789062 -48.390625 59.960938 -48.007812 60.859375 -47.25 C 61.753906 -46.488281 62.203125 -46.039062 62.203125 -45.90625 C 61.847656 -45.113281 61.34375 -43.523438 60.6875 -41.140625 C 60.039062 -38.765625 59.335938 -35.957031 58.578125 -32.71875 C 57.828125 -29.476562 57.09375 -26.113281 56.375 -22.625 C 55.65625 -19.132812 55.023438 -15.859375 54.484375 -12.796875 C 53.941406 -9.734375 53.5625 -7.175781 53.34375 -5.125 C 53.132812 -3.070312 53.171875 -1.867188 53.453125 -1.515625 L 53.671875 -1.515625 C 54.253906 -1.515625 55.191406 -2.34375 56.484375 -4 C 57.773438 -5.65625 59.285156 -7.882812 61.015625 -10.6875 C 62.742188 -13.5 64.5625 -16.648438 66.46875 -20.140625 C 68.382812 -23.628906 70.203125 -27.207031 71.921875 -30.875 C 73.648438 -34.550781 75.179688 -38.0625 76.515625 -41.40625 C 77.847656 -44.757812 78.820312 -47.75 79.4375 -50.375 C 80.050781 -53.007812 80.175781 -54.972656 79.8125 -56.265625 C 79.664062 -56.835938 79.484375 -57.269531 79.265625 -57.5625 C 79.054688 -57.851562 78.660156 -58.035156 78.078125 -58.109375 C 77.503906 -58.109375 77.21875 -58.394531 77.21875 -58.96875 C 77.363281 -59.46875 77.6875 -59.71875 78.1875 -59.71875 L 78.84375 -59.609375 C 81.144531 -58.960938 82.582031 -57.488281 83.15625 -55.1875 C 83.738281 -52.882812 83.648438 -50.003906 82.890625 -46.546875 C 82.128906 -43.085938 80.921875 -39.320312 79.265625 -35.25 C 77.609375 -31.1875 75.71875 -27.101562 73.59375 -23 C 71.476562 -18.894531 69.300781 -15.039062 67.0625 -11.4375 C 64.832031 -7.84375 62.78125 -4.726562 60.90625 -2.09375 C 59.039062 0.53125 57.566406 2.34375 56.484375 3.34375 C 55.191406 4.425781 54.039062 4.96875 53.03125 4.96875 C 51.65625 4.96875 50.550781 4.226562 49.71875 2.75 C 48.894531 1.28125 48.453125 -0.316406 48.390625 -2.046875 C 48.242188 -4.710938 48.367188 -7.914062 48.765625 -11.65625 C 49.160156 -15.40625 49.71875 -19.273438 50.4375 -23.265625 C 51.15625 -27.265625 51.890625 -30.972656 52.640625 -34.390625 C 53.398438 -37.816406 54.101562 -40.5 54.75 -42.4375 C 52.300781 -39.488281 49.765625 -36 47.140625 -31.96875 C 44.515625 -27.9375 41.90625 -23.6875 39.3125 -19.21875 C 36.71875 -14.757812 34.175781 -10.347656 31.6875 -5.984375 C 29.207031 -1.628906 26.890625 2.378906 24.734375 6.046875 C 24.160156 6.910156 23.40625 7.34375 22.46875 7.34375 C 21.8125 7.34375 21.25 7.125 20.78125 6.6875 C 20.320312 6.257812 20.160156 5.867188 20.296875 5.515625 C 21.597656 2.203125 22.878906 -1.519531 24.140625 -5.65625 C 25.398438 -9.800781 26.550781 -14 27.59375 -18.25 C 28.632812 -22.5 29.476562 -26.351562 30.125 -29.8125 C 30.269531 -30.75 30.519531 -32.242188 30.875 -34.296875 C 31.238281 -36.347656 31.566406 -38.648438 31.859375 -41.203125 C 32.148438 -43.753906 32.296875 -46.253906 32.296875 -48.703125 C 32.296875 -51.148438 32.039062 -53.273438 31.53125 -55.078125 C 31.03125 -56.878906 30.164062 -57.992188 28.9375 -58.421875 C 28.507812 -58.566406 28.078125 -58.640625 27.640625 -58.640625 C 26.054688 -58.640625 24.222656 -57.988281 22.140625 -56.6875 C 20.054688 -55.394531 17.914062 -53.613281 15.71875 -51.34375 C 13.519531 -49.082031 11.519531 -46.546875 9.71875 -43.734375 C 7.914062 -40.929688 6.472656 -37.976562 5.390625 -34.875 C 4.316406 -31.78125 3.816406 -28.738281 3.890625 -25.75 C 3.960938 -22.769531 4.84375 -19.984375 6.53125 -17.390625 C 8.226562 -14.796875 10.910156 -12.632812 14.578125 -10.90625 C 15.085938 -10.6875 15.234375 -10.328125 15.015625 -9.828125 C 14.941406 -9.609375 14.6875 -9.5 14.25 -9.5 L 14.046875 -9.5 C 9.796875 -11.519531 6.644531 -13.96875 4.59375 -16.84375 C 2.539062 -19.726562 1.351562 -22.84375 1.03125 -26.1875 C 0.707031 -29.539062 1.046875 -32.925781 2.046875 -36.34375 C 3.054688 -39.757812 4.53125 -43.050781 6.46875 -46.21875 C 8.414062 -49.382812 10.628906 -52.207031 13.109375 -54.6875 C 15.597656 -57.175781 18.15625 -59.140625 20.78125 -60.578125 C 23.414062 -62.023438 25.921875 -62.75 28.296875 -62.75 C 28.867188 -62.75 29.460938 -62.710938 30.078125 -62.640625 C 30.691406 -62.566406 31.285156 -62.382812 31.859375 -62.09375 C 34.453125 -61.019531 36.25 -59.148438 37.25 -56.484375 C 38.257812 -53.816406 38.726562 -50.664062 38.65625 -47.03125 C 38.59375 -43.394531 38.144531 -39.503906 37.3125 -35.359375 C 36.488281 -31.222656 35.460938 -27.117188 34.234375 -23.046875 C 33.015625 -18.984375 31.828125 -15.1875 30.671875 -11.65625 C 32.035156 -14.039062 33.65625 -16.851562 35.53125 -20.09375 C 37.40625 -23.332031 39.382812 -26.640625 41.46875 -30.015625 C 43.5625 -33.398438 45.632812 -36.550781 47.6875 -39.46875 C 49.738281 -42.382812 51.554688 -44.671875 53.140625 -46.328125 Z M 53.140625 -46.328125 "/></g></g></g><g fill="#215ba3" fill-opacity="1"><g transform="translate(200.941254, 203.538901)"><g><path d="M 20.625 -8.421875 C 20.84375 -8.203125 21.0625 -8.09375 21.28125 -8.09375 C 21.851562 -8.09375 22.625 -8.539062 23.59375 -9.4375 C 24.570312 -10.34375 25.632812 -11.476562 26.78125 -12.84375 C 27.9375 -14.21875 29.050781 -15.601562 30.125 -17 C 31.207031 -18.40625 32.109375 -19.613281 32.828125 -20.625 C 33.546875 -21.632812 33.941406 -22.210938 34.015625 -22.359375 C 34.453125 -22.359375 34.773438 -22.300781 34.984375 -22.1875 C 35.203125 -22.082031 35.382812 -21.742188 35.53125 -21.171875 C 35.03125 -20.378906 34.148438 -19.046875 32.890625 -17.171875 C 31.628906 -15.296875 30.1875 -13.332031 28.5625 -11.28125 C 26.945312 -9.226562 25.273438 -7.460938 23.546875 -5.984375 C 21.816406 -4.515625 20.234375 -3.78125 18.796875 -3.78125 C 17.929688 -3.78125 17.140625 -4.140625 16.421875 -4.859375 C 15.335938 -5.867188 14.773438 -7.179688 14.734375 -8.796875 C 14.703125 -10.421875 14.796875 -11.953125 15.015625 -13.390625 C 15.085938 -13.609375 15.125 -13.828125 15.125 -14.046875 C 14.039062 -12.316406 12.90625 -10.53125 11.71875 -8.6875 C 10.53125 -6.851562 9.378906 -5.234375 8.265625 -3.828125 C 7.148438 -2.429688 6.085938 -1.515625 5.078125 -1.078125 C 5.003906 -1.078125 4.910156 -1.054688 4.796875 -1.015625 C 4.691406 -0.984375 4.566406 -0.96875 4.421875 -0.96875 C 4.140625 -0.96875 3.867188 -1.019531 3.609375 -1.125 C 3.359375 -1.238281 3.054688 -1.367188 2.703125 -1.515625 C 0.972656 -2.304688 0 -3.691406 -0.21875 -5.671875 C -0.4375 -7.648438 -0.148438 -9.9375 0.640625 -12.53125 C 1.441406 -15.125 2.539062 -17.734375 3.9375 -20.359375 C 5.34375 -22.984375 6.835938 -25.375 8.421875 -27.53125 C 10.003906 -29.695312 11.445312 -31.320312 12.75 -32.40625 C 14.257812 -33.695312 15.585938 -34.34375 16.734375 -34.34375 C 17.316406 -34.34375 17.84375 -34.21875 18.3125 -33.96875 C 18.78125 -33.71875 19.15625 -33.410156 19.4375 -33.046875 C 20.664062 -31.753906 21.242188 -30.296875 21.171875 -28.671875 C 21.097656 -27.054688 20.84375 -25.457031 20.40625 -23.875 C 20.988281 -24.082031 21.457031 -24.1875 21.8125 -24.1875 C 23.039062 -24.1875 24.15625 -23.578125 25.15625 -22.359375 C 25.519531 -21.992188 25.703125 -21.738281 25.703125 -21.59375 C 25.703125 -21.457031 25.488281 -21.242188 25.0625 -20.953125 C 23.976562 -20.085938 23.09375 -18.679688 22.40625 -16.734375 C 21.726562 -14.796875 21.28125 -13.175781 21.0625 -11.875 C 20.550781 -10.21875 20.40625 -9.066406 20.625 -8.421875 Z M 16.203125 -26.78125 C 15.117188 -25.632812 13.925781 -23.976562 12.625 -21.8125 C 11.332031 -19.65625 10.128906 -17.40625 9.015625 -15.0625 C 7.898438 -12.726562 7.050781 -10.695312 6.46875 -8.96875 C 5.894531 -7.238281 5.789062 -6.191406 6.15625 -5.828125 C 6.726562 -5.828125 7.585938 -6.617188 8.734375 -8.203125 C 9.890625 -9.785156 11.207031 -11.675781 12.6875 -13.875 C 14.164062 -16.070312 15.550781 -18.070312 16.84375 -19.875 C 17.132812 -20.445312 17.421875 -20.984375 17.703125 -21.484375 C 17.992188 -21.992188 18.394531 -22.425781 18.90625 -22.78125 C 19.332031 -26.3125 19.113281 -28.078125 18.25 -28.078125 C 17.957031 -28.078125 17.648438 -27.953125 17.328125 -27.703125 C 17.003906 -27.453125 16.628906 -27.144531 16.203125 -26.78125 Z M 16.203125 -26.78125 "/></g></g></g><g fill="#215ba3" fill-opacity="1"><g transform="translate(227.400654, 203.538901)"><g><path d="M 19.015625 -34.015625 C 20.523438 -33.078125 21.457031 -31.832031 21.8125 -30.28125 C 22.175781 -28.738281 22.210938 -27.15625 21.921875 -25.53125 C 21.628906 -23.914062 21.195312 -22.425781 20.625 -21.0625 C 20.269531 -19.976562 19.640625 -18.550781 18.734375 -16.78125 C 17.835938 -15.019531 16.863281 -13.078125 15.8125 -10.953125 C 14.769531 -8.835938 13.78125 -6.769531 12.84375 -4.75 C 11.914062 -2.738281 11.234375 -0.941406 10.796875 0.640625 C 11.441406 0.710938 12.375 0.140625 13.59375 -1.078125 C 14.820312 -2.304688 16.210938 -3.890625 17.765625 -5.828125 C 19.316406 -7.773438 20.847656 -9.8125 22.359375 -11.9375 C 23.867188 -14.0625 25.195312 -15.984375 26.34375 -17.703125 C 27.5 -19.429688 28.332031 -20.625 28.84375 -21.28125 C 29.195312 -21.488281 29.410156 -21.59375 29.484375 -21.59375 C 29.554688 -21.59375 29.738281 -21.523438 30.03125 -21.390625 C 30.601562 -21.097656 30.742188 -20.734375 30.453125 -20.296875 C 30.171875 -19.867188 29.503906 -18.863281 28.453125 -17.28125 C 27.410156 -15.695312 26.148438 -13.804688 24.671875 -11.609375 C 23.203125 -9.410156 21.640625 -7.210938 19.984375 -5.015625 C 18.328125 -2.828125 16.722656 -0.890625 15.171875 0.796875 C 13.628906 2.492188 12.28125 3.632812 11.125 4.21875 C 10.976562 4.28125 10.832031 4.328125 10.6875 4.359375 C 10.539062 4.398438 10.398438 4.421875 10.265625 4.421875 C 8.679688 4.421875 7.5625 3.644531 6.90625 2.09375 C 6.257812 0.550781 5.9375 -0.828125 5.9375 -2.046875 C 5.863281 -3.703125 6.273438 -5.628906 7.171875 -7.828125 C 8.078125 -10.023438 9.160156 -12.3125 10.421875 -14.6875 C 11.679688 -17.0625 12.90625 -19.363281 14.09375 -21.59375 C 15.28125 -23.832031 16.179688 -25.847656 16.796875 -27.640625 C 17.410156 -29.441406 17.460938 -30.8125 16.953125 -31.75 C 16.878906 -31.894531 16.769531 -32.070312 16.625 -32.28125 C 16.488281 -32.5 16.347656 -32.71875 16.203125 -32.9375 C 13.898438 -29.550781 12.0625 -26.613281 10.6875 -24.125 C 9.320312 -21.644531 8.023438 -19.613281 6.796875 -18.03125 C 6.296875 -17.675781 5.898438 -17.5 5.609375 -17.5 C 5.253906 -17.5 5.019531 -17.695312 4.90625 -18.09375 C 4.800781 -18.488281 4.785156 -18.722656 4.859375 -18.796875 C 5.648438 -19.867188 6.566406 -21.304688 7.609375 -23.109375 C 8.660156 -24.910156 9.78125 -26.851562 10.96875 -28.9375 C 12.15625 -31.03125 13.285156 -33.015625 14.359375 -34.890625 C 12.992188 -36.253906 12.21875 -37.707031 12.03125 -39.25 C 11.851562 -40.800781 12.085938 -42.28125 12.734375 -43.6875 C 13.390625 -45.09375 14.238281 -46.257812 15.28125 -47.1875 C 16.320312 -48.125 17.421875 -48.628906 18.578125 -48.703125 C 19.441406 -48.773438 20.085938 -48.394531 20.515625 -47.5625 C 20.953125 -46.738281 21.222656 -45.804688 21.328125 -44.765625 C 21.429688 -43.722656 21.378906 -42.878906 21.171875 -42.234375 C 20.378906 -40.140625 19.226562 -37.832031 17.71875 -35.3125 C 17.925781 -35.09375 18.15625 -34.875 18.40625 -34.65625 C 18.664062 -34.445312 18.867188 -34.234375 19.015625 -34.015625 Z M 18.25 -44.171875 C 17.957031 -44.171875 17.523438 -43.8125 16.953125 -43.09375 C 16.378906 -42.375 15.96875 -41.507812 15.71875 -40.5 C 15.46875 -39.488281 15.664062 -38.550781 16.3125 -37.6875 C 16.664062 -38.269531 17.019531 -38.921875 17.375 -39.640625 C 17.738281 -40.359375 18.03125 -41.078125 18.25 -41.796875 C 18.820312 -43.378906 18.820312 -44.171875 18.25 -44.171875 Z M 18.25 -44.171875 "/></g></g></g><g fill="#215ba3" fill-opacity="1"><g transform="translate(249.648145, 203.538901)"><g><path d="M 3.671875 -0.859375 C 3.378906 -0.859375 3.109375 -0.910156 2.859375 -1.015625 C 2.609375 -1.128906 2.335938 -1.222656 2.046875 -1.296875 C 0.679688 -1.941406 -0.0859375 -3.164062 -0.265625 -4.96875 C -0.453125 -6.769531 -0.1875 -8.875 0.53125 -11.28125 C 1.257812 -13.695312 2.195312 -16.164062 3.34375 -18.6875 C 4.5 -21.207031 5.722656 -23.546875 7.015625 -25.703125 C 8.316406 -27.859375 9.46875 -29.550781 10.46875 -30.78125 C 11.050781 -31.644531 11.8125 -32.078125 12.75 -32.078125 C 13.613281 -32.078125 14.40625 -31.71875 15.125 -31 C 15.84375 -30.28125 16.273438 -29.453125 16.421875 -28.515625 C 15.910156 -28.003906 15.132812 -26.972656 14.09375 -25.421875 C 13.050781 -23.878906 11.953125 -22.0625 10.796875 -19.96875 C 9.648438 -17.882812 8.585938 -15.796875 7.609375 -13.703125 C 6.640625 -11.617188 5.9375 -9.835938 5.5 -8.359375 C 5.070312 -6.890625 5.078125 -5.972656 5.515625 -5.609375 C 5.867188 -5.609375 6.492188 -6.078125 7.390625 -7.015625 C 8.296875 -7.953125 9.34375 -9.175781 10.53125 -10.6875 C 11.71875 -12.195312 12.921875 -13.78125 14.140625 -15.4375 C 15.367188 -17.09375 16.488281 -18.609375 17.5 -19.984375 C 17.78125 -20.628906 18.171875 -21.421875 18.671875 -22.359375 C 19.179688 -23.296875 19.796875 -24.125 20.515625 -24.84375 C 21.234375 -25.5625 21.988281 -25.921875 22.78125 -25.921875 C 23.71875 -25.921875 24.671875 -25.6875 25.640625 -25.21875 C 26.617188 -24.75 26.859375 -24.117188 26.359375 -23.328125 C 26.140625 -22.960938 25.703125 -22.113281 25.046875 -20.78125 C 24.398438 -19.457031 23.734375 -17.984375 23.046875 -16.359375 C 22.367188 -14.742188 21.847656 -13.285156 21.484375 -11.984375 C 21.128906 -10.179688 21.0625 -9.066406 21.28125 -8.640625 C 21.414062 -8.421875 21.59375 -8.3125 21.8125 -8.3125 C 22.394531 -8.3125 23.171875 -8.757812 24.140625 -9.65625 C 25.109375 -10.5625 26.164062 -11.679688 27.3125 -13.015625 C 28.46875 -14.347656 29.566406 -15.695312 30.609375 -17.0625 C 31.660156 -18.425781 32.546875 -19.613281 33.265625 -20.625 C 33.984375 -21.632812 34.378906 -22.210938 34.453125 -22.359375 C 34.453125 -22.359375 34.46875 -22.375 34.5 -22.40625 C 34.539062 -22.445312 34.597656 -22.46875 34.671875 -22.46875 C 35.242188 -22.46875 35.640625 -22.035156 35.859375 -21.171875 C 35.347656 -20.453125 34.460938 -19.15625 33.203125 -17.28125 C 31.941406 -15.40625 30.519531 -13.457031 28.9375 -11.4375 C 27.351562 -9.425781 25.710938 -7.679688 24.015625 -6.203125 C 22.328125 -4.734375 20.765625 -4 19.328125 -4 C 18.609375 -4 17.816406 -4.359375 16.953125 -5.078125 C 16.015625 -6.085938 15.507812 -7.398438 15.4375 -9.015625 C 15.375 -10.640625 15.445312 -12.132812 15.65625 -13.5 L 15.765625 -14.140625 C 15.410156 -13.492188 14.726562 -12.46875 13.71875 -11.0625 C 12.707031 -9.664062 11.570312 -8.175781 10.3125 -6.59375 C 9.050781 -5.007812 7.828125 -3.65625 6.640625 -2.53125 C 5.453125 -1.414062 4.460938 -0.859375 3.671875 -0.859375 Z M 3.671875 -0.859375 "/></g></g></g><g fill="#215ba3" fill-opacity="1"><g transform="translate(277.07952, 203.538901)"><g><path d="M 28.84375 -30.125 C 29.769531 -29.332031 29.945312 -28.21875 29.375 -26.78125 L 29.265625 -26.453125 C 29.046875 -25.953125 28.539062 -24.910156 27.75 -23.328125 C 26.957031 -21.742188 26.128906 -19.941406 25.265625 -17.921875 C 24.398438 -15.910156 23.625 -13.96875 22.9375 -12.09375 C 22.257812 -10.21875 21.898438 -8.703125 21.859375 -7.546875 C 21.828125 -6.398438 22.28125 -5.863281 23.21875 -5.9375 C 24.65625 -6.15625 26.113281 -6.960938 27.59375 -8.359375 C 29.070312 -9.765625 30.492188 -11.332031 31.859375 -13.0625 C 33.222656 -14.789062 34.375 -16.234375 35.3125 -17.390625 L 35.421875 -17.5 L 35.640625 -17.8125 C 36.429688 -18.96875 37.148438 -19.941406 37.796875 -20.734375 C 38.441406 -21.523438 38.800781 -21.992188 38.875 -22.140625 C 38.875 -22.140625 38.890625 -22.15625 38.921875 -22.1875 C 38.960938 -22.226562 39.019531 -22.25 39.09375 -22.25 C 39.601562 -22.25 39.960938 -21.851562 40.171875 -21.0625 C 40.023438 -20.769531 39.804688 -20.441406 39.515625 -20.078125 C 39.234375 -19.722656 38.945312 -19.296875 38.65625 -18.796875 C 37.863281 -17.640625 36.75 -16.125 35.3125 -14.25 C 33.875 -12.382812 32.289062 -10.515625 30.5625 -8.640625 C 28.832031 -6.765625 27.066406 -5.195312 25.265625 -3.9375 C 23.472656 -2.675781 21.816406 -2.046875 20.296875 -2.046875 C 19.941406 -2.046875 19.65625 -2.082031 19.4375 -2.15625 C 17.925781 -2.445312 16.953125 -3.238281 16.515625 -4.53125 C 16.085938 -5.832031 15.984375 -7.363281 16.203125 -9.125 C 16.421875 -10.882812 16.851562 -12.71875 17.5 -14.625 C 18.144531 -16.539062 18.828125 -18.269531 19.546875 -19.8125 C 20.265625 -21.363281 20.84375 -22.535156 21.28125 -23.328125 C 18.394531 -19.796875 15.582031 -16.25 12.84375 -12.6875 C 10.113281 -9.125 7.488281 -5.4375 4.96875 -1.625 C 4.53125 -0.832031 4.0625 -0.4375 3.5625 -0.4375 C 3.414062 -0.4375 3.21875 -0.503906 2.96875 -0.640625 C 2.71875 -0.785156 2.445312 -0.894531 2.15625 -0.96875 C 0.570312 -1.757812 -0.378906 -2.695312 -0.703125 -3.78125 C -1.023438 -4.863281 -0.9375 -6.234375 -0.4375 -7.890625 C 0.351562 -10.046875 1.035156 -11.84375 1.609375 -13.28125 C 2.191406 -14.71875 2.769531 -16.015625 3.34375 -17.171875 C 3.925781 -18.328125 4.59375 -19.601562 5.34375 -21 C 6.101562 -22.40625 6.984375 -24.117188 7.984375 -26.140625 C 8.347656 -26.929688 8.742188 -27.429688 9.171875 -27.640625 C 9.609375 -27.859375 10.222656 -27.96875 11.015625 -27.96875 C 12.453125 -27.96875 13.675781 -27.460938 14.6875 -26.453125 L 14.90625 -26.25 C 15.332031 -25.738281 15.492188 -25.320312 15.390625 -25 C 15.285156 -24.675781 15.050781 -24.226562 14.6875 -23.65625 C 13.96875 -22.207031 13.375 -21.070312 12.90625 -20.25 C 12.4375 -19.425781 12.019531 -18.722656 11.65625 -18.140625 C 11.300781 -17.566406 10.90625 -16.863281 10.46875 -16.03125 C 10.039062 -15.207031 9.429688 -14.078125 8.640625 -12.640625 C 8.203125 -11.703125 7.710938 -10.78125 7.171875 -9.875 C 6.640625 -8.976562 6.085938 -8.023438 5.515625 -7.015625 C 5.867188 -7.523438 6.691406 -8.675781 7.984375 -10.46875 C 9.285156 -12.269531 10.835938 -14.320312 12.640625 -16.625 C 14.441406 -18.9375 16.222656 -21.222656 17.984375 -23.484375 C 19.742188 -25.753906 21.269531 -27.660156 22.5625 -29.203125 C 23.863281 -30.753906 24.660156 -31.566406 24.953125 -31.640625 C 26.535156 -31.640625 27.832031 -31.132812 28.84375 -30.125 Z M 28.84375 -30.125 "/></g></g></g><g fill="#215ba3" fill-opacity="1"><g transform="translate(307.642829, 203.538901)"><g><path d="M 21.171875 -25.15625 L 21.484375 -25.921875 C 21.847656 -26.710938 22.207031 -27.410156 22.5625 -28.015625 C 22.925781 -28.628906 23.363281 -29.15625 23.875 -29.59375 C 24.007812 -29.738281 24.4375 -29.8125 25.15625 -29.8125 C 26.09375 -29.8125 27.03125 -29.613281 27.96875 -29.21875 C 28.90625 -28.820312 29.125 -28.046875 28.625 -26.890625 C 28.113281 -25.804688 27.640625 -24.707031 27.203125 -23.59375 C 26.773438 -22.476562 26.3125 -21.414062 25.8125 -20.40625 C 25.019531 -18.613281 24.03125 -16.222656 22.84375 -13.234375 C 21.65625 -10.242188 20.285156 -7.035156 18.734375 -3.609375 C 17.191406 -0.191406 15.484375 3.113281 13.609375 6.3125 C 11.734375 9.519531 9.695312 12.273438 7.5 14.578125 C 5.3125 16.878906 2.957031 18.390625 0.4375 19.109375 L 0.328125 19.21875 C -0.179688 19.289062 -0.703125 19.378906 -1.234375 19.484375 C -1.773438 19.597656 -2.265625 19.65625 -2.703125 19.65625 C -4.785156 19.65625 -6.4375 19.078125 -7.65625 17.921875 C -8.882812 16.773438 -9.734375 15.335938 -10.203125 13.609375 C -10.671875 11.878906 -10.941406 10.148438 -11.015625 8.421875 C -11.015625 8.128906 -10.992188 7.769531 -10.953125 7.34375 C -10.921875 6.914062 -10.726562 6.734375 -10.375 6.796875 C -9.9375 6.867188 -9.695312 7.101562 -9.65625 7.5 C -9.625 7.894531 -9.609375 8.238281 -9.609375 8.53125 C -9.609375 10.332031 -9.265625 12.039062 -8.578125 13.65625 C -7.898438 15.28125 -6.550781 16.09375 -4.53125 16.09375 C -2.226562 16.09375 -0.0351562 15.066406 2.046875 13.015625 C 4.140625 10.960938 6.117188 8.351562 7.984375 5.1875 C 9.859375 2.019531 11.550781 -1.328125 13.0625 -4.859375 C 14.582031 -8.390625 15.914062 -11.628906 17.0625 -14.578125 C 15.476562 -11.984375 13.785156 -9.441406 11.984375 -6.953125 C 10.179688 -4.472656 8.671875 -2.550781 7.453125 -1.1875 C 6.804688 -0.46875 5.976562 -0.109375 4.96875 -0.109375 C 4.101562 -0.109375 3.253906 -0.410156 2.421875 -1.015625 C 1.597656 -1.628906 1.003906 -2.625 0.640625 -4 C 0.140625 -6.082031 0.226562 -8.5625 0.90625 -11.4375 C 1.59375 -14.320312 2.65625 -17.203125 4.09375 -20.078125 C 5.539062 -22.960938 7.09375 -25.519531 8.75 -27.75 C 10.40625 -29.988281 11.878906 -31.46875 13.171875 -32.1875 C 14.035156 -32.757812 14.863281 -33.046875 15.65625 -33.046875 C 16.882812 -33.046875 17.875 -32.59375 18.625 -31.6875 C 19.382812 -30.789062 19.941406 -29.75 20.296875 -28.5625 C 20.660156 -27.375 20.914062 -26.273438 21.0625 -25.265625 Z M 19.4375 -22.46875 C 19.363281 -22.820312 19.273438 -23.445312 19.171875 -24.34375 C 19.066406 -25.25 18.976562 -25.773438 18.90625 -25.921875 C 18.832031 -26.710938 18.703125 -27.34375 18.515625 -27.8125 C 18.335938 -28.28125 18.070312 -28.550781 17.71875 -28.625 L 17.5 -28.625 C 16.707031 -28.625 15.769531 -28.007812 14.6875 -26.78125 C 13.601562 -25.5625 12.484375 -23.976562 11.328125 -22.03125 C 10.179688 -20.082031 9.125 -18.03125 8.15625 -15.875 C 7.1875 -13.71875 6.359375 -11.664062 5.671875 -9.71875 C 4.984375 -7.769531 4.582031 -6.179688 4.46875 -4.953125 C 4.363281 -3.734375 4.601562 -3.125 5.1875 -3.125 C 5.613281 -3.125 6.367188 -3.769531 7.453125 -5.0625 C 8.535156 -6.363281 9.796875 -8.019531 11.234375 -10.03125 C 12.671875 -12.050781 14.109375 -14.160156 15.546875 -16.359375 C 16.992188 -18.554688 18.253906 -20.554688 19.328125 -22.359375 Z M 19.4375 -22.46875 "/></g></g></g><path fill="#f7d73b" d="M 108.621094 170.222656 C 109.117188 170.304688 109.613281 170.398438 110.101562 170.511719 C 111.6875 170.855469 113.234375 171.324219 114.734375 171.917969 C 115.53125 170.796875 116.449219 169.761719 117.472656 168.824219 C 118.023438 168.324219 118.601562 167.84375 119.214844 167.40625 C 117.476562 166.480469 115.394531 166.191406 113.347656 166.738281 C 111.3125 167.285156 109.667969 168.566406 108.621094 170.222656 Z M 108.621094 170.222656 " fill-opacity="1" fill-rule="nonzero"/><path fill="#f7d73b" d="M 123.378906 165.113281 C 124.109375 164.8125 124.859375 164.5625 125.636719 164.351562 C 126.015625 164.25 126.390625 164.167969 126.765625 164.085938 C 126.671875 163.980469 126.570312 163.875 126.460938 163.777344 C 122.695312 159.917969 117.011719 158.148438 111.445312 159.640625 C 106.34375 161.007812 102.519531 164.792969 100.882812 169.4375 C 100.816406 169.625 100.757812 169.820312 100.695312 170.011719 C 101.8125 169.890625 102.925781 169.835938 104.035156 169.847656 C 104.253906 169.285156 104.523438 168.75 104.835938 168.246094 C 106.425781 165.566406 109.003906 163.484375 112.242188 162.617188 C 115.84375 161.652344 119.503906 162.394531 122.371094 164.34375 C 122.722656 164.582031 123.0625 164.835938 123.378906 165.113281 Z M 123.378906 165.113281 " fill-opacity="1" fill-rule="nonzero"/><path fill="#f7d73b" d="M 111.066406 182.511719 C 109.152344 181.691406 107.097656 181.191406 104.972656 181.074219 C 103.839844 181 102.6875 181.039062 101.527344 181.195312 C 100.738281 181.296875 99.9375 181.449219 99.148438 181.664062 C 98.523438 181.828125 97.914062 182.03125 97.324219 182.253906 C 92.886719 183.953125 89.433594 187.25 87.453125 191.292969 C 92.546875 191.058594 98.386719 190.285156 104.425781 189.039062 C 106.660156 188.578125 108.960938 188.042969 111.269531 187.445312 L 111.464844 187.394531 C 111.871094 187.292969 112.242188 187.195312 112.605469 187.097656 L 112.640625 187.085938 C 113.609375 186.828125 114.578125 186.558594 115.53125 186.273438 C 115.839844 186.191406 116.148438 186.101562 116.441406 186.007812 C 116.113281 185.699219 115.769531 185.40625 115.421875 185.125 C 114.097656 184.058594 112.632812 183.175781 111.066406 182.511719 Z M 111.066406 182.511719 " fill-opacity="1" fill-rule="nonzero"/><path fill="#f7d73b" d="M 120.761719 180.585938 C 120.238281 180.105469 119.679688 179.652344 119.117188 179.230469 C 118.277344 178.597656 117.398438 178.015625 116.492188 177.492188 C 115.257812 176.785156 113.964844 176.171875 112.625 175.679688 C 110.933594 175.054688 109.171875 174.609375 107.371094 174.347656 C 105.96875 174.152344 104.542969 174.078125 103.101562 174.121094 C 102.082031 174.15625 101.050781 174.25 100.019531 174.40625 C 99.128906 174.550781 98.242188 174.738281 97.355469 174.972656 C 96.820312 175.117188 96.289062 175.28125 95.769531 175.457031 C 88.148438 178.039062 82.484375 184.003906 80.007812 191.195312 C 80.640625 191.253906 81.34375 191.296875 82.164062 191.328125 C 82.363281 191.339844 82.566406 191.34375 82.773438 191.347656 C 85.035156 185.390625 89.78125 180.472656 96.085938 178.15625 C 96.722656 177.921875 97.375 177.714844 98.042969 177.539062 C 98.773438 177.34375 99.496094 177.1875 100.222656 177.066406 C 101.253906 176.898438 102.28125 176.800781 103.304688 176.769531 C 104.820312 176.730469 106.320312 176.84375 107.785156 177.109375 C 109.144531 177.347656 110.464844 177.707031 111.75 178.183594 C 113.117188 178.691406 114.4375 179.332031 115.675781 180.101562 C 116.625 180.675781 117.535156 181.324219 118.390625 182.039062 C 118.414062 182.023438 118.449219 182.015625 118.476562 182 C 118.46875 182.03125 118.46875 182.0625 118.464844 182.101562 C 119.367188 182.851562 120.214844 183.6875 120.988281 184.585938 C 121.222656 184.507812 121.46875 184.425781 121.703125 184.347656 C 121.96875 184.261719 122.203125 184.179688 122.433594 184.09375 C 122.863281 183.949219 123.273438 183.804688 123.671875 183.660156 C 123.363281 183.277344 123.046875 182.898438 122.714844 182.53125 C 122.101562 181.847656 121.449219 181.195312 120.761719 180.585938 Z M 120.761719 180.585938 " fill-opacity="1" fill-rule="nonzero"/><g clip-path="url(#3a0488a2a9)"><path fill="#f7d73b" d="M 89.371094 173.65625 C 91.445312 172.484375 93.683594 171.550781 96.078125 170.894531 C 97.453125 163.699219 102.800781 157.535156 110.339844 155.515625 C 117.164062 153.6875 124.144531 155.699219 128.945312 160.226562 L 139.816406 140.066406 C 139.0625 138.574219 138.214844 137.136719 137.285156 135.761719 C 134.511719 131.675781 128.835938 125.820312 123.960938 124.609375 C 123.960938 124.609375 124.664062 125.308594 124.867188 125.511719 C 127.175781 127.824219 129.28125 130.824219 128.734375 134.261719 C 128.140625 137.980469 124.691406 141.039062 120.929688 141.179688 C 117.84375 141.296875 114.859375 139.605469 112.945312 137.179688 C 111.035156 134.753906 110.097656 131.671875 109.785156 128.597656 C 109.230469 123.117188 110.589844 117.464844 113.582031 112.839844 C 108.523438 114.273438 103.371094 115.863281 99.199219 119.066406 C 96.15625 121.402344 93.664062 124.78125 92.882812 128.589844 C 92.113281 132.332031 94.753906 134.957031 95.710938 138.476562 C 96.929688 142.953125 94.101562 148.960938 89.714844 144.015625 C 86.0625 139.894531 81.464844 137.007812 74.765625 137.929688 C 80.410156 140.402344 85.195312 153.367188 77.648438 163.234375 C 74.566406 167.265625 72.84375 172.472656 72.949219 177.703125 C 73.039062 182.042969 74.125 185.992188 76.175781 189.238281 C 77.039062 186.863281 78.210938 184.613281 79.652344 182.53125 C 82.144531 178.9375 85.445312 175.882812 89.371094 173.65625 Z M 89.371094 173.65625 " fill-opacity="1" fill-rule="nonzero"/></g><path fill="#f7d73b" d="M 144.199219 153.949219 L 136.808594 164.644531 C 138.402344 165.160156 139.910156 165.878906 141.3125 166.769531 C 142.167969 167.3125 142.980469 167.929688 143.726562 168.605469 C 144.78125 163.820312 144.898438 158.808594 144.199219 153.949219 Z M 144.199219 153.949219 " fill-opacity="1" fill-rule="nonzero"/><path fill="#f7d73b" d="M 134.113281 168.328125 C 132.59375 167.984375 131.007812 167.867188 129.394531 168.011719 C 128.515625 168.082031 127.628906 168.238281 126.742188 168.476562 C 126.578125 168.523438 126.414062 168.566406 126.257812 168.621094 C 124.851562 169.042969 123.550781 169.65625 122.371094 170.421875 C 120.929688 171.347656 119.6875 172.496094 118.644531 173.808594 C 119.542969 174.324219 120.40625 174.890625 121.25 175.496094 C 121.878906 174.722656 122.609375 174.035156 123.421875 173.433594 C 124.585938 172.578125 125.917969 171.910156 127.382812 171.503906 C 127.4375 171.480469 127.484375 171.46875 127.539062 171.453125 C 128.507812 171.195312 129.480469 171.058594 130.441406 171.039062 C 131.992188 170.996094 133.503906 171.253906 134.917969 171.769531 C 137.136719 172.574219 139.101562 174 140.546875 175.902344 L 141.582031 175.25 L 141.589844 175.25 C 141.878906 174.601562 142.140625 173.945312 142.386719 173.273438 C 140.226562 170.792969 137.316406 169.054688 134.113281 168.328125 Z M 134.113281 168.328125 " fill-opacity="1" fill-rule="nonzero"/><path fill="#f7d73b" d="M 130.824219 175.304688 C 130.109375 175.296875 129.375 175.382812 128.644531 175.578125 C 128.316406 175.667969 127.996094 175.773438 127.691406 175.898438 C 126.421875 176.417969 125.335938 177.230469 124.511719 178.242188 C 125.160156 178.871094 125.777344 179.527344 126.367188 180.226562 C 126.882812 180.824219 127.375 181.445312 127.832031 182.085938 C 128.019531 182.015625 128.175781 181.960938 128.261719 181.921875 C 129.761719 181.320312 131.289062 180.667969 132.785156 179.980469 C 134.144531 179.359375 135.484375 178.695312 136.769531 178.019531 C 136.257812 177.433594 135.667969 176.9375 135.015625 176.53125 C 133.777344 175.757812 132.324219 175.320312 130.824219 175.304688 Z M 130.824219 175.304688 " fill-opacity="1" fill-rule="nonzero"/><path fill="#215ba3" d="M 146.59375 163.929688 C 146.492188 165.121094 146.332031 166.308594 146.121094 167.46875 C 149.121094 168.183594 150.105469 169.148438 150.199219 169.492188 C 150.292969 169.84375 149.914062 171.183594 147.660156 173.320312 C 146.816406 174.113281 145.71875 175.011719 144.285156 176.015625 C 143.523438 176.550781 142.664062 177.113281 141.695312 177.703125 C 141.660156 177.71875 141.628906 177.734375 141.597656 177.757812 C 140.460938 178.453125 139.25 179.136719 137.96875 179.804688 C 136.609375 180.523438 135.175781 181.230469 133.675781 181.921875 C 132.191406 182.597656 130.652344 183.261719 129.050781 183.90625 C 128.378906 184.171875 127.695312 184.4375 127.011719 184.710938 C 126.339844 184.960938 125.664062 185.210938 124.976562 185.453125 C 124.375 185.679688 123.769531 185.894531 123.148438 186.105469 C 122.898438 186.195312 122.644531 186.285156 122.386719 186.367188 C 121.304688 186.730469 120.207031 187.09375 119.089844 187.433594 C 118.753906 187.546875 118.414062 187.652344 118.070312 187.753906 C 117.429688 187.945312 116.789062 188.140625 116.140625 188.320312 C 115.171875 188.609375 114.183594 188.882812 113.191406 189.148438 C 112.800781 189.253906 112.410156 189.359375 112.015625 189.457031 L 111.800781 189.515625 C 109.460938 190.121094 107.144531 190.660156 104.859375 191.128906 C 98.285156 192.488281 92.03125 193.285156 86.542969 193.460938 C 85.289062 193.507812 84.066406 193.511719 82.894531 193.488281 C 82.613281 193.480469 82.339844 193.472656 82.078125 193.460938 C 81.097656 193.425781 80.199219 193.371094 79.378906 193.289062 C 78.535156 193.210938 77.769531 193.105469 77.078125 193 C 76.648438 192.929688 76.242188 192.851562 75.875 192.773438 C 75.617188 192.71875 75.378906 192.65625 75.152344 192.601562 C 72.355469 191.890625 71.414062 190.964844 71.324219 190.628906 C 71.296875 190.523438 71.3125 190.320312 71.414062 190.03125 C 71.59375 189.515625 72.035156 188.742188 72.957031 187.730469 C 72.425781 186.554688 71.992188 185.3125 71.664062 184.007812 L 36.394531 162.496094 C 35.058594 161.6875 33.320312 162.140625 32.546875 163.488281 L 31.507812 165.277344 C 30.734375 166.621094 31.210938 168.347656 32.578125 169.101562 L 68.183594 188.539062 C 67.738281 189.597656 67.632812 190.605469 67.886719 191.550781 C 67.964844 191.851562 68.078125 192.136719 68.234375 192.414062 C 68.394531 192.65625 68.566406 192.90625 68.742188 193.148438 C 70.402344 195.496094 72.285156 197.664062 74.359375 199.628906 C 75.808594 200.992188 77.34375 202.261719 78.957031 203.421875 C 79.988281 204.160156 81.046875 204.863281 82.140625 205.515625 C 84.003906 206.636719 85.953125 207.625 87.972656 208.476562 C 97.167969 212.347656 107.785156 213.339844 118.351562 210.632812 C 118.539062 210.589844 118.726562 210.542969 118.910156 210.492188 C 120.835938 209.976562 122.703125 209.351562 124.503906 208.625 C 125.679688 208.15625 126.824219 207.640625 127.945312 207.089844 C 129.714844 206.210938 131.414062 205.242188 133.027344 204.175781 C 133.855469 203.636719 134.660156 203.066406 135.445312 202.472656 C 142.132812 197.457031 147.289062 190.828125 150.421875 183.378906 C 152.15625 179.253906 153.277344 174.878906 153.695312 170.382812 C 153.726562 170.089844 153.746094 169.789062 153.765625 169.496094 C 153.761719 169.179688 153.71875 168.875 153.636719 168.574219 C 153.042969 166.359375 150.519531 164.808594 146.59375 163.929688 Z M 146.59375 163.929688 " fill-opacity="1" fill-rule="nonzero"/><path fill="#215ba3" d="M 131.617188 163.324219 L 142.144531 145.535156 L 158.007812 118.753906 C 158.238281 118.359375 158.105469 117.859375 157.714844 117.640625 L 155.847656 116.585938 C 155.457031 116.359375 154.957031 116.507812 154.738281 116.902344 L 140.945312 142.464844 L 130.484375 161.851562 C 130.871094 162.308594 131.238281 162.785156 131.582031 163.277344 C 131.59375 163.296875 131.605469 163.308594 131.617188 163.324219 Z M 131.617188 163.324219 " fill-opacity="1" fill-rule="nonzero"/><g clip-path="url(#dc2e59e050)"><path fill="#215ba3" d="M 163.226562 121.195312 L 161.445312 120.015625 C 161.066406 119.761719 160.558594 119.867188 160.316406 120.25 L 142.875 147.792969 L 132.742188 163.789062 C 133.371094 163.855469 133.992188 163.949219 134.609375 164.078125 L 143.667969 150.96875 L 143.664062 150.960938 L 163.449219 122.320312 C 163.703125 121.949219 163.601562 121.441406 163.226562 121.195312 Z M 163.226562 121.195312 " fill-opacity="1" fill-rule="nonzero"/></g><g clip-path="url(#d98b019954)"><path fill="#215ba3" d="M 340.761719 143.695312 C 341.085938 145.3125 340.277344 146.980469 339.109375 148.144531 C 337.945312 149.3125 336.457031 150.085938 335.035156 150.914062 C 333.613281 151.746094 332.191406 152.695312 331.296875 154.082031 C 330.519531 155.285156 330.203125 156.730469 330.039062 158.15625 C 329.835938 159.882812 329.863281 161.695312 330.414062 163.324219 C 330.8125 162.34375 331.332031 161.402344 331.925781 160.527344 C 333.089844 158.800781 334.523438 157.277344 335.949219 155.761719 C 337.617188 153.992188 339.285156 152.226562 340.953125 150.457031 C 339.226562 153.691406 336.550781 156.296875 334.289062 159.183594 C 332.03125 162.074219 330.101562 165.519531 330.3125 169.183594 C 330.480469 167.308594 332 165.820312 333.652344 164.914062 C 335.300781 164.011719 337.152344 163.503906 338.777344 162.558594 C 341.851562 160.769531 343.917969 157.355469 344.078125 153.800781 C 344.238281 150.207031 342.601562 146.785156 340.761719 143.695312 Z M 340.761719 143.695312 " fill-opacity="1" fill-rule="nonzero"/></g><g clip-path="url(#0fec18a6b7)"><g clip-path="url(#ca09d01049)"><path fill="#f7d73b" d="M 329.140625 145.246094 L 329.140625 164.558594 L 318.226562 164.558594 L 318.226562 145.246094 Z M 329.140625 145.246094 " fill-opacity="1" fill-rule="nonzero"/></g></g><path fill="#215ba3" d="M 128.492188 223.457031 L 246.496094 223.457031 C 255.746094 223.457031 263.246094 230.957031 263.246094 240.207031 C 263.246094 249.457031 255.746094 256.957031 246.496094 256.957031 L 128.492188 256.957031 C 124.046875 256.957031 119.789062 255.191406 116.648438 252.050781 C 113.503906 248.910156 111.742188 244.648438 111.742188 240.207031 C 111.742188 230.957031 119.238281 223.457031 128.492188 223.457031 Z M 128.492188 223.457031 " fill-opacity="1" fill-rule="nonzero"/><g fill="#ffffff" fill-opacity="1"><g transform="translate(119.740748, 246.206189)"><g><path d="M 7.203125 -9.828125 C 6.546875 -8.722656 6.144531 -8.171875 6 -8.171875 C 5.925781 -8.171875 5.820312 -8.210938 5.6875 -8.296875 C 5.5625 -8.390625 5.492188 -8.484375 5.484375 -8.578125 C 5.472656 -8.671875 5.679688 -9.117188 6.109375 -9.921875 C 5.347656 -9.773438 4.847656 -9.703125 4.609375 -9.703125 C 4.378906 -9.703125 4.265625 -9.753906 4.265625 -9.859375 C 4.265625 -10.378906 4.941406 -10.859375 6.296875 -11.296875 L 5.96875 -11.71875 C 5.820312 -11.8125 5.6875 -11.960938 5.5625 -12.171875 C 5.445312 -12.390625 5.390625 -12.570312 5.390625 -12.71875 C 5.390625 -12.875 5.429688 -13.015625 5.515625 -13.140625 C 5.597656 -13.273438 5.726562 -13.34375 5.90625 -13.34375 C 6.09375 -13.34375 6.347656 -13.148438 6.671875 -12.765625 L 7.25 -11.96875 C 7.476562 -12.375 7.671875 -12.800781 7.828125 -13.25 C 7.984375 -13.570312 8.253906 -13.734375 8.640625 -13.734375 C 8.804688 -13.734375 8.929688 -13.703125 9.015625 -13.640625 C 9.109375 -13.585938 9.15625 -13.507812 9.15625 -13.40625 C 9.15625 -13.300781 8.921875 -12.820312 8.453125 -11.96875 C 9.335938 -12.15625 9.847656 -12.3125 9.984375 -12.4375 C 10.054688 -12.539062 10.125 -12.59375 10.1875 -12.59375 C 10.257812 -12.59375 10.320312 -12.53125 10.375 -12.40625 C 10.425781 -12.289062 10.453125 -12.1875 10.453125 -12.09375 C 10.453125 -11.414062 9.785156 -10.882812 8.453125 -10.5 C 8.679688 -10.21875 8.835938 -9.984375 8.921875 -9.796875 C 9.015625 -9.617188 9.0625 -9.398438 9.0625 -9.140625 C 9.0625 -8.890625 9.003906 -8.664062 8.890625 -8.46875 C 8.785156 -8.269531 8.640625 -8.171875 8.453125 -8.171875 C 8.273438 -8.171875 8.132812 -8.285156 8.03125 -8.515625 C 7.757812 -8.921875 7.484375 -9.359375 7.203125 -9.828125 Z M 7.203125 -9.828125 "/></g></g></g><g fill="#ffffff" fill-opacity="1"><g transform="translate(127.064966, 246.206189)"><g/></g></g><g fill="#ffffff" fill-opacity="1"><g transform="translate(131.213735, 246.206189)"><g/></g></g><g fill="#ffffff" fill-opacity="1"><g transform="translate(135.373559, 246.206189)"><g><path d="M 19.265625 -13.515625 C 19.191406 -13.515625 19.15625 -13.5625 19.15625 -13.65625 C 19.15625 -13.757812 19.179688 -13.820312 19.234375 -13.84375 C 19.296875 -13.875 19.394531 -13.925781 19.53125 -14 C 19.664062 -14.070312 19.757812 -14.117188 19.8125 -14.140625 C 19.863281 -14.160156 19.941406 -14.195312 20.046875 -14.25 C 20.160156 -14.300781 20.25 -14.335938 20.3125 -14.359375 C 20.382812 -14.378906 20.46875 -14.40625 20.5625 -14.4375 C 20.726562 -14.476562 20.929688 -14.5 21.171875 -14.5 C 21.421875 -14.5 21.671875 -14.414062 21.921875 -14.25 C 22.179688 -14.082031 22.3125 -13.859375 22.3125 -13.578125 C 22.3125 -13.015625 22.0625 -12.265625 21.5625 -11.328125 C 21.070312 -10.398438 20.4375 -9.429688 19.65625 -8.421875 C 18.882812 -7.410156 18.015625 -6.382812 17.046875 -5.34375 C 16.085938 -4.300781 15.148438 -3.367188 14.234375 -2.546875 C 13.316406 -1.722656 12.453125 -1.050781 11.640625 -0.53125 C 10.835938 -0.0078125 10.21875 0.25 9.78125 0.25 C 8.851562 0.25 8.390625 -0.171875 8.390625 -1.015625 C 8.390625 -2.191406 9.054688 -3.894531 10.390625 -6.125 C 7.796875 -3.050781 5.625 -1.066406 3.875 -0.171875 C 3.414062 0.0546875 3.066406 0.171875 2.828125 0.171875 C 2.585938 0.171875 2.289062 0.0234375 1.9375 -0.265625 C 1.59375 -0.566406 1.421875 -0.859375 1.421875 -1.140625 C 1.421875 -2.765625 2.546875 -5.035156 4.796875 -7.953125 C 5.648438 -9.066406 6.722656 -10.3125 8.015625 -11.6875 C 6.890625 -10.707031 6.035156 -10.21875 5.453125 -10.21875 C 5.140625 -10.21875 4.90625 -10.375 4.75 -10.6875 C 4.613281 -10.90625 4.546875 -11.113281 4.546875 -11.3125 C 4.546875 -11.507812 4.675781 -11.722656 4.9375 -11.953125 C 5.195312 -12.191406 5.347656 -12.3125 5.390625 -12.3125 C 5.441406 -12.3125 5.488281 -12.296875 5.53125 -12.265625 C 5.570312 -12.234375 5.59375 -12.203125 5.59375 -12.171875 C 5.5 -12.078125 5.453125 -12.015625 5.453125 -11.984375 C 5.453125 -11.953125 5.488281 -11.9375 5.5625 -11.9375 C 5.644531 -11.9375 6.296875 -12.3125 7.515625 -13.0625 C 8.742188 -13.8125 9.414062 -14.1875 9.53125 -14.1875 C 9.875 -14.1875 10.203125 -14.09375 10.515625 -13.90625 C 10.828125 -13.71875 10.984375 -13.5625 10.984375 -13.4375 C 10.984375 -13.3125 10.914062 -13.144531 10.78125 -12.9375 C 10.65625 -12.726562 9.878906 -11.707031 8.453125 -9.875 C 7.035156 -8.039062 6.003906 -6.648438 5.359375 -5.703125 C 4.710938 -4.765625 4.238281 -3.992188 3.9375 -3.390625 C 3.644531 -2.785156 3.5 -2.414062 3.5 -2.28125 C 3.5 -2.15625 3.519531 -2.09375 3.5625 -2.09375 C 3.832031 -2.09375 4.804688 -2.914062 6.484375 -4.5625 C 8.171875 -6.21875 9.773438 -7.851562 11.296875 -9.46875 C 12.816406 -11.082031 13.644531 -11.972656 13.78125 -12.140625 C 13.914062 -12.316406 14.0625 -12.441406 14.21875 -12.515625 C 14.375 -12.597656 14.609375 -12.640625 14.921875 -12.640625 C 15.796875 -12.640625 16.234375 -12.472656 16.234375 -12.140625 C 16.234375 -12.003906 16.039062 -11.710938 15.65625 -11.265625 C 15.28125 -10.828125 15.015625 -10.503906 14.859375 -10.296875 C 14.046875 -9.265625 13.140625 -7.804688 12.140625 -5.921875 C 11.140625 -4.046875 10.640625 -2.84375 10.640625 -2.3125 C 10.640625 -2.164062 10.6875 -2.09375 10.78125 -2.09375 C 10.875 -2.09375 11.148438 -2.273438 11.609375 -2.640625 C 12.078125 -3.015625 12.691406 -3.566406 13.453125 -4.296875 C 14.210938 -5.035156 15.078125 -5.941406 16.046875 -7.015625 C 17.023438 -8.097656 17.953125 -9.296875 18.828125 -10.609375 C 19.710938 -11.929688 20.15625 -12.757812 20.15625 -13.09375 C 20.15625 -13.4375 20.023438 -13.609375 19.765625 -13.609375 Z M 19.265625 -13.515625 "/></g></g></g><g fill="#ffffff" fill-opacity="1"><g transform="translate(153.28648, 246.206189)"><g><path d="M 8.0625 -7.421875 C 8.550781 -7.421875 8.796875 -7.253906 8.796875 -6.921875 C 8.796875 -6.734375 8.753906 -6.597656 8.671875 -6.515625 C 8.585938 -6.429688 8.40625 -6.148438 8.125 -5.671875 C 7.851562 -5.191406 7.546875 -4.578125 7.203125 -3.828125 C 6.867188 -3.085938 6.65625 -2.453125 6.5625 -1.921875 C 6.539062 -1.859375 6.53125 -1.769531 6.53125 -1.65625 C 6.53125 -1.289062 6.628906 -1.109375 6.828125 -1.109375 C 7.023438 -1.109375 7.253906 -1.203125 7.515625 -1.390625 C 7.785156 -1.578125 8.023438 -1.773438 8.234375 -1.984375 C 8.441406 -2.203125 8.644531 -2.421875 8.84375 -2.640625 C 9.039062 -2.859375 9.160156 -2.984375 9.203125 -3.015625 C 9.242188 -3.046875 9.300781 -3.0625 9.375 -3.0625 C 9.5 -3.0625 9.570312 -2.96875 9.59375 -2.78125 C 9.625 -2.59375 9.640625 -2.394531 9.640625 -2.1875 C 9.640625 -1.988281 9.617188 -1.851562 9.578125 -1.78125 C 9.390625 -1.40625 8.972656 -0.957031 8.328125 -0.4375 C 7.691406 0.0820312 7.109375 0.34375 6.578125 0.34375 C 6.054688 0.34375 5.671875 0.1875 5.421875 -0.125 C 5.179688 -0.445312 5.0625 -0.800781 5.0625 -1.1875 C 5.0625 -1.582031 5.125 -1.925781 5.25 -2.21875 C 4.707031 -1.507812 4.085938 -0.910156 3.390625 -0.421875 C 2.691406 0.0546875 2.117188 0.296875 1.671875 0.296875 C 1.234375 0.296875 0.875 0.164062 0.59375 -0.09375 C 0.238281 -0.425781 0.0625 -0.882812 0.0625 -1.46875 C 0.0625 -2.0625 0.191406 -2.65625 0.453125 -3.25 C 0.710938 -3.851562 1.054688 -4.398438 1.484375 -4.890625 C 1.921875 -5.378906 2.394531 -5.828125 2.90625 -6.234375 C 3.988281 -7.078125 4.988281 -7.5 5.90625 -7.5 C 6.25 -7.5 6.53125 -7.441406 6.75 -7.328125 C 6.976562 -7.210938 7.117188 -7.066406 7.171875 -6.890625 C 7.328125 -7.117188 7.457031 -7.265625 7.5625 -7.328125 C 7.675781 -7.390625 7.84375 -7.421875 8.0625 -7.421875 Z M 6.765625 -6.34375 C 5.648438 -6.34375 4.492188 -5.722656 3.296875 -4.484375 C 2.878906 -4.035156 2.492188 -3.503906 2.140625 -2.890625 C 1.785156 -2.273438 1.609375 -1.851562 1.609375 -1.625 C 1.609375 -1.394531 1.671875 -1.28125 1.796875 -1.28125 C 1.984375 -1.28125 2.492188 -1.640625 3.328125 -2.359375 C 4.160156 -3.078125 4.710938 -3.609375 4.984375 -3.953125 C 5.285156 -4.328125 5.878906 -5.125 6.765625 -6.34375 Z M 6.765625 -6.34375 "/></g></g></g><g fill="#ffffff" fill-opacity="1"><g transform="translate(161.427829, 246.206189)"><g><path d="M 3.796875 -5.328125 C 5.335938 -7.066406 6.644531 -7.9375 7.71875 -7.9375 C 7.988281 -7.9375 8.207031 -7.859375 8.375 -7.703125 C 8.550781 -7.546875 8.640625 -7.335938 8.640625 -7.078125 C 8.640625 -6.828125 8.457031 -6.398438 8.09375 -5.796875 C 7.738281 -5.203125 7.40625 -4.703125 7.09375 -4.296875 C 6.9375 -4.085938 6.753906 -3.984375 6.546875 -3.984375 C 6.335938 -3.984375 6.175781 -4.054688 6.0625 -4.203125 C 5.957031 -4.359375 5.90625 -4.535156 5.90625 -4.734375 C 5.90625 -5.179688 6.144531 -5.691406 6.625 -6.265625 L 6.609375 -6.28125 C 6.390625 -6.257812 5.851562 -5.832031 5 -5 C 4.15625 -4.175781 3.429688 -3.4375 2.828125 -2.78125 C 2.234375 -2.132812 1.59375 -1.34375 0.90625 -0.40625 C 0.695312 -0.125 0.519531 0.015625 0.375 0.015625 C 0.238281 0.015625 0.0546875 -0.0234375 -0.171875 -0.109375 C -0.398438 -0.203125 -0.539062 -0.265625 -0.59375 -0.296875 C -0.644531 -0.335938 -0.671875 -0.40625 -0.671875 -0.5 C -0.671875 -0.59375 -0.644531 -0.695312 -0.59375 -0.8125 C -0.539062 -0.9375 -0.441406 -1.109375 -0.296875 -1.328125 C -0.160156 -1.546875 0.046875 -1.898438 0.328125 -2.390625 C 0.617188 -2.890625 1.0625 -3.640625 1.65625 -4.640625 C 2.257812 -5.648438 2.617188 -6.257812 2.734375 -6.46875 C 2.984375 -6.894531 3.1875 -7.207031 3.34375 -7.40625 C 3.632812 -7.769531 4.128906 -7.953125 4.828125 -7.953125 C 4.984375 -7.953125 5.0625 -7.859375 5.0625 -7.671875 C 5.0625 -7.359375 4.773438 -6.78125 4.203125 -5.9375 Z M 3.796875 -5.328125 "/></g></g></g><g fill="#ffffff" fill-opacity="1"><g transform="translate(168.407523, 246.206189)"><g><path d="M 8.875 -3.0625 C 9 -3.0625 9.070312 -2.96875 9.09375 -2.78125 C 9.125 -2.59375 9.140625 -2.394531 9.140625 -2.1875 C 9.140625 -1.988281 9.117188 -1.851562 9.078125 -1.78125 C 8.890625 -1.414062 8.476562 -0.96875 7.84375 -0.4375 C 7.207031 0.0820312 6.601562 0.34375 6.03125 0.34375 C 5.675781 0.34375 5.347656 0.234375 5.046875 0.015625 C 4.742188 -0.191406 4.59375 -0.554688 4.59375 -1.078125 C 4.59375 -1.609375 4.734375 -2.128906 5.015625 -2.640625 C 3.398438 -0.609375 2.132812 0.40625 1.21875 0.40625 C 0.851562 0.40625 0.554688 0.273438 0.328125 0.015625 C 0.109375 -0.242188 0 -0.515625 0 -0.796875 C 0 -1.078125 0.0351562 -1.363281 0.109375 -1.65625 C 0.191406 -1.945312 0.273438 -2.207031 0.359375 -2.4375 C 0.453125 -2.675781 0.582031 -2.96875 0.75 -3.3125 C 0.925781 -3.664062 1.054688 -3.921875 1.140625 -4.078125 C 1.222656 -4.234375 1.359375 -4.46875 1.546875 -4.78125 C 1.734375 -5.09375 1.976562 -5.515625 2.28125 -6.046875 C 2.582031 -6.585938 2.832031 -6.984375 3.03125 -7.234375 C 3.226562 -7.492188 3.421875 -7.625 3.609375 -7.625 C 3.796875 -7.632812 3.960938 -7.5625 4.109375 -7.40625 C 4.253906 -7.25 4.328125 -7.117188 4.328125 -7.015625 C 4.328125 -6.921875 4.109375 -6.484375 3.671875 -5.703125 C 2.378906 -3.367188 1.734375 -2.007812 1.734375 -1.625 C 1.734375 -1.53125 1.769531 -1.484375 1.84375 -1.484375 C 2.15625 -1.484375 2.929688 -2.160156 4.171875 -3.515625 C 5.421875 -4.867188 6.140625 -5.734375 6.328125 -6.109375 C 6.523438 -6.492188 6.71875 -6.816406 6.90625 -7.078125 C 7.09375 -7.335938 7.234375 -7.5 7.328125 -7.5625 C 7.609375 -7.738281 7.96875 -7.835938 8.40625 -7.859375 C 8.476562 -7.859375 8.535156 -7.851562 8.578125 -7.84375 C 8.617188 -7.832031 8.664062 -7.773438 8.71875 -7.671875 C 8.769531 -7.566406 8.796875 -7.488281 8.796875 -7.4375 C 8.734375 -7.25 8.472656 -6.757812 8.015625 -5.96875 C 7.554688 -5.1875 7.300781 -4.742188 7.25 -4.640625 C 6.476562 -3.046875 6.09375 -2.007812 6.09375 -1.53125 C 6.09375 -1.257812 6.195312 -1.125 6.40625 -1.125 C 6.78125 -1.175781 7.238281 -1.476562 7.78125 -2.03125 C 7.96875 -2.226562 8.15625 -2.429688 8.34375 -2.640625 C 8.539062 -2.847656 8.660156 -2.96875 8.703125 -3 C 8.753906 -3.039062 8.8125 -3.0625 8.875 -3.0625 Z M 8.875 -3.0625 "/></g></g></g><g fill="#ffffff" fill-opacity="1"><g transform="translate(176.314589, 246.206189)"><g><path d="M 5.703125 -1.5 C 5.703125 -1.21875 5.898438 -1.078125 6.296875 -1.078125 C 6.503906 -1.078125 6.765625 -1.179688 7.078125 -1.390625 C 7.390625 -1.597656 7.675781 -1.828125 7.9375 -2.078125 C 8.613281 -2.742188 8.992188 -3.078125 9.078125 -3.078125 C 9.253906 -3.078125 9.34375 -2.832031 9.34375 -2.34375 C 9.34375 -1.851562 9.1875 -1.519531 8.875 -1.34375 C 7.945312 -0.5 7.226562 0.015625 6.71875 0.203125 C 6.4375 0.296875 6.117188 0.335938 5.765625 0.328125 C 5.421875 0.328125 5.078125 0.179688 4.734375 -0.109375 C 4.398438 -0.410156 4.234375 -0.769531 4.234375 -1.1875 C 4.234375 -1.601562 4.34375 -2.078125 4.5625 -2.609375 C 4.789062 -3.148438 5.019531 -3.609375 5.25 -3.984375 C 5.476562 -4.367188 5.757812 -4.8125 6.09375 -5.3125 C 6.4375 -5.820312 6.617188 -6.140625 6.640625 -6.265625 L 6.625 -6.28125 C 6.40625 -6.257812 5.867188 -5.832031 5.015625 -5 C 4.171875 -4.175781 3.472656 -3.457031 2.921875 -2.84375 C 2.367188 -2.238281 1.707031 -1.425781 0.9375 -0.40625 C 0.71875 -0.125 0.539062 0.015625 0.40625 0.015625 C 0.269531 0.015625 0.0859375 -0.0234375 -0.140625 -0.109375 C -0.367188 -0.203125 -0.507812 -0.265625 -0.5625 -0.296875 C -0.613281 -0.335938 -0.640625 -0.394531 -0.640625 -0.46875 C -0.640625 -0.550781 -0.617188 -0.648438 -0.578125 -0.765625 C -0.535156 -0.878906 -0.488281 -0.972656 -0.4375 -1.046875 C -0.394531 -1.117188 -0.328125 -1.234375 -0.234375 -1.390625 C -0.140625 -1.546875 0.0507812 -1.875 0.34375 -2.375 C 0.632812 -2.882812 1.078125 -3.640625 1.671875 -4.640625 C 2.273438 -5.648438 2.632812 -6.257812 2.75 -6.46875 C 3 -6.894531 3.203125 -7.207031 3.359375 -7.40625 C 3.648438 -7.769531 4.144531 -7.953125 4.84375 -7.953125 C 5 -7.953125 5.078125 -7.859375 5.078125 -7.671875 C 5.078125 -7.359375 4.796875 -6.78125 4.234375 -5.9375 L 3.8125 -5.328125 C 4.945312 -6.578125 5.898438 -7.367188 6.671875 -7.703125 C 7.046875 -7.859375 7.382812 -7.9375 7.6875 -7.9375 C 7.988281 -7.9375 8.226562 -7.851562 8.40625 -7.6875 C 8.59375 -7.53125 8.6875 -7.351562 8.6875 -7.15625 C 8.6875 -6.957031 8.613281 -6.71875 8.46875 -6.4375 C 8.332031 -6.164062 8.195312 -5.921875 8.0625 -5.703125 C 7.925781 -5.484375 7.742188 -5.207031 7.515625 -4.875 C 7.285156 -4.539062 7.160156 -4.359375 7.140625 -4.328125 C 7.117188 -4.296875 7.066406 -4.21875 6.984375 -4.09375 C 6.898438 -3.96875 6.835938 -3.875 6.796875 -3.8125 C 6.765625 -3.757812 6.703125 -3.660156 6.609375 -3.515625 C 6.515625 -3.367188 6.441406 -3.242188 6.390625 -3.140625 C 6.335938 -3.046875 6.269531 -2.925781 6.1875 -2.78125 C 6.101562 -2.632812 6.035156 -2.507812 5.984375 -2.40625 C 5.941406 -2.300781 5.894531 -2.191406 5.84375 -2.078125 C 5.75 -1.847656 5.703125 -1.65625 5.703125 -1.5 Z M 5.703125 -1.5 "/></g></g></g><g fill="#ffffff" fill-opacity="1"><g transform="translate(184.124037, 246.206189)"><g><path d="M 3.640625 -6.484375 C 4.273438 -6.921875 4.894531 -7.253906 5.5 -7.484375 C 6.101562 -7.722656 6.625 -7.84375 7.0625 -7.84375 C 7.507812 -7.84375 7.796875 -7.71875 7.921875 -7.46875 C 8.171875 -7.757812 8.488281 -7.914062 8.875 -7.9375 C 8.976562 -7.9375 9.109375 -7.9375 9.265625 -7.9375 C 9.429688 -7.9375 9.535156 -7.914062 9.578125 -7.875 C 9.617188 -7.832031 9.65625 -7.753906 9.6875 -7.640625 C 9.71875 -7.523438 9.734375 -7.457031 9.734375 -7.4375 C 9.742188 -7.425781 9.75 -7.40625 9.75 -7.375 C 9.75 -7.34375 9.734375 -7.304688 9.703125 -7.265625 C 9.671875 -7.222656 9.632812 -7.179688 9.59375 -7.140625 C 9.550781 -7.109375 9.523438 -7.085938 9.515625 -7.078125 C 8.078125 -5.015625 6.609375 -2.660156 5.109375 -0.015625 C 6.660156 -1.390625 8.046875 -2.378906 9.265625 -2.984375 C 9.347656 -3.015625 9.425781 -3.03125 9.5 -3.03125 C 9.601562 -3.03125 9.671875 -2.960938 9.703125 -2.828125 C 9.734375 -2.703125 9.75 -2.515625 9.75 -2.265625 C 9.75 -2.015625 9.734375 -1.859375 9.703125 -1.796875 C 9.671875 -1.742188 9.519531 -1.628906 9.25 -1.453125 C 8.976562 -1.273438 8.625 -1.046875 8.1875 -0.765625 C 7.75 -0.492188 7.285156 -0.1875 6.796875 0.15625 C 5.628906 0.96875 4.664062 1.820312 3.90625 2.71875 C 2.925781 3.90625 2.226562 4.859375 1.8125 5.578125 C 1.65625 5.859375 1.390625 6 1.015625 6 C 0.273438 6 -0.09375 5.648438 -0.09375 4.953125 C -0.09375 4.242188 0.253906 3.519531 0.953125 2.78125 C 1.472656 2.21875 1.953125 1.757812 2.390625 1.40625 C 2.828125 1.0625 3.066406 0.867188 3.109375 0.828125 C 3.585938 0.0976562 4.238281 -0.925781 5.0625 -2.25 C 4.363281 -1.519531 3.679688 -0.9375 3.015625 -0.5 C 2.359375 -0.0625 1.867188 0.15625 1.546875 0.15625 C 0.546875 0.15625 0.046875 -0.269531 0.046875 -1.125 C 0.046875 -1.800781 0.21875 -2.484375 0.5625 -3.171875 C 0.90625 -3.859375 1.347656 -4.472656 1.890625 -5.015625 C 2.429688 -5.566406 3.015625 -6.054688 3.640625 -6.484375 Z M 7.359375 -6.734375 C 6.609375 -6.578125 5.898438 -6.3125 5.234375 -5.9375 C 4.566406 -5.5625 4.019531 -5.160156 3.59375 -4.734375 C 3.164062 -4.304688 2.796875 -3.867188 2.484375 -3.421875 C 1.898438 -2.578125 1.609375 -1.925781 1.609375 -1.46875 C 1.609375 -1.351562 1.632812 -1.296875 1.6875 -1.296875 C 1.738281 -1.296875 1.859375 -1.351562 2.046875 -1.46875 C 2.242188 -1.59375 2.519531 -1.796875 2.875 -2.078125 C 3.226562 -2.359375 3.617188 -2.695312 4.046875 -3.09375 C 5.035156 -4.007812 6.140625 -5.222656 7.359375 -6.734375 Z M 7.359375 -6.734375 "/></g></g></g><g fill="#ffffff" fill-opacity="1"><g transform="translate(192.489908, 246.206189)"><g/></g></g><g fill="#ffffff" fill-opacity="1"><g transform="translate(196.638677, 246.206189)"><g><path d="M 16.734375 -14.140625 L 17.09375 -14.046875 C 17.914062 -13.921875 18.328125 -13.671875 18.328125 -13.296875 C 18.328125 -13.191406 18.289062 -13.101562 18.21875 -13.03125 C 17.332031 -12.25 16.160156 -11.398438 14.703125 -10.484375 C 12.484375 -9.097656 9.957031 -7.757812 7.125 -6.46875 C 8.050781 -5.9375 9.304688 -5.0625 10.890625 -3.84375 C 13.015625 -2.269531 14.320312 -1.484375 14.8125 -1.484375 C 14.976562 -1.484375 15.117188 -1.53125 15.234375 -1.625 C 15.359375 -1.71875 15.425781 -1.765625 15.4375 -1.765625 C 15.550781 -1.765625 15.609375 -1.710938 15.609375 -1.609375 C 15.609375 -1.515625 15.5 -1.253906 15.28125 -0.828125 C 15.0625 -0.398438 14.875 -0.117188 14.71875 0.015625 C 14.570312 0.148438 14.332031 0.21875 14 0.21875 C 13.664062 0.21875 13.222656 0.0546875 12.671875 -0.265625 C 12.117188 -0.585938 11.515625 -0.992188 10.859375 -1.484375 C 10.203125 -1.984375 9.546875 -2.484375 8.890625 -2.984375 C 7.242188 -4.253906 6.132812 -5.007812 5.5625 -5.25 C 3.5625 -2.082031 2.53125 -0.441406 2.46875 -0.328125 C 2.414062 -0.222656 2.34375 -0.132812 2.25 -0.0625 C 2.164062 0.0078125 2.113281 0.046875 2.09375 0.046875 L 1.671875 0.09375 L 1.328125 0.078125 C 1.234375 0.078125 1.164062 0.09375 1.125 0.125 C 1.09375 0.15625 1.050781 0.175781 1 0.1875 C 0.957031 0.195312 0.921875 0.21875 0.890625 0.25 C 0.859375 0.28125 0.804688 0.296875 0.734375 0.296875 C 0.671875 0.296875 0.578125 0.238281 0.453125 0.125 C 0.335938 0.0195312 0.28125 -0.0664062 0.28125 -0.140625 C 0.28125 -0.222656 0.328125 -0.359375 0.421875 -0.546875 C 0.515625 -0.742188 1.710938 -2.5625 4.015625 -6 L 3.828125 -6 C 3.390625 -6 3.171875 -6.113281 3.171875 -6.34375 C 3.171875 -6.582031 3.28125 -6.820312 3.5 -7.0625 C 3.71875 -7.300781 3.9375 -7.421875 4.15625 -7.421875 C 4.382812 -7.421875 4.628906 -7.398438 4.890625 -7.359375 C 6.117188 -9.179688 7.066406 -10.609375 7.734375 -11.640625 C 6.984375 -10.929688 6.269531 -10.578125 5.59375 -10.578125 C 5.257812 -10.578125 5 -10.6875 4.8125 -10.90625 C 4.625 -11.132812 4.53125 -11.390625 4.53125 -11.671875 C 4.53125 -11.960938 4.601562 -12.195312 4.75 -12.375 C 4.894531 -12.5625 5.035156 -12.691406 5.171875 -12.765625 C 5.304688 -12.835938 5.398438 -12.875 5.453125 -12.875 C 5.503906 -12.875 5.53125 -12.847656 5.53125 -12.796875 L 5.453125 -12.5625 C 5.453125 -12.46875 5.59375 -12.421875 5.875 -12.421875 C 6.15625 -12.421875 6.546875 -12.570312 7.046875 -12.875 C 7.546875 -13.1875 8.035156 -13.5 8.515625 -13.8125 C 9.003906 -14.125 9.367188 -14.28125 9.609375 -14.28125 C 9.847656 -14.28125 10.003906 -14.25 10.078125 -14.1875 C 10.160156 -14.132812 10.226562 -14.097656 10.28125 -14.078125 C 10.34375 -14.066406 10.394531 -14.046875 10.4375 -14.015625 C 10.476562 -13.984375 10.507812 -13.941406 10.53125 -13.890625 C 10.5625 -13.835938 10.613281 -13.78125 10.6875 -13.71875 C 10.757812 -13.664062 10.796875 -13.585938 10.796875 -13.484375 C 10.796875 -13.390625 10.769531 -13.300781 10.71875 -13.21875 C 9.882812 -11.96875 8.867188 -10.394531 7.671875 -8.5 C 9.285156 -9.332031 11.128906 -10.40625 13.203125 -11.71875 C 15.273438 -13.03125 16.398438 -13.804688 16.578125 -14.046875 C 16.609375 -14.109375 16.660156 -14.140625 16.734375 -14.140625 Z M 16.734375 -14.140625 "/></g></g></g><g fill="#ffffff" fill-opacity="1"><g transform="translate(210.969014, 246.206189)"><g><path d="M 7.328125 -7.3125 C 7.328125 -6.875 7.148438 -6.492188 6.796875 -6.171875 C 6.453125 -5.847656 6.054688 -5.6875 5.609375 -5.6875 C 5.472656 -5.6875 5.378906 -5.71875 5.328125 -5.78125 C 5.285156 -5.851562 5.265625 -5.941406 5.265625 -6.046875 C 5.265625 -6.160156 5.273438 -6.269531 5.296875 -6.375 C 5.066406 -6.300781 4.804688 -6.179688 4.515625 -6.015625 C 4.234375 -5.847656 3.882812 -5.601562 3.46875 -5.28125 C 3.050781 -4.96875 2.84375 -4.734375 2.84375 -4.578125 C 2.84375 -4.523438 2.914062 -4.5 3.0625 -4.5 C 3.21875 -4.5 3.457031 -4.550781 3.78125 -4.65625 C 4.101562 -4.769531 4.328125 -4.828125 4.453125 -4.828125 C 4.578125 -4.828125 4.660156 -4.820312 4.703125 -4.8125 C 4.785156 -4.757812 4.875 -4.65625 4.96875 -4.5 C 5.070312 -4.351562 5.125 -4.234375 5.125 -4.140625 C 5.125 -4.054688 5.035156 -3.941406 4.859375 -3.796875 C 4.691406 -3.648438 4.5 -3.539062 4.28125 -3.46875 C 4.070312 -3.394531 3.929688 -3.335938 3.859375 -3.296875 C 2.484375 -2.535156 1.796875 -2.007812 1.796875 -1.71875 C 1.796875 -1.207031 2.226562 -0.953125 3.09375 -0.953125 C 3.644531 -0.953125 4.203125 -1.128906 4.765625 -1.484375 C 5.242188 -1.785156 5.671875 -2.085938 6.046875 -2.390625 C 6.429688 -2.703125 6.671875 -2.894531 6.765625 -2.96875 C 6.867188 -3.039062 6.945312 -3.078125 7 -3.078125 C 7.164062 -3.078125 7.25 -2.882812 7.25 -2.5 C 7.25 -2.125 7.226562 -1.875 7.1875 -1.75 C 7.144531 -1.632812 7.015625 -1.488281 6.796875 -1.3125 C 5.398438 -0.1875 4.082031 0.375 2.84375 0.375 C 2.175781 0.375 1.644531 0.285156 1.25 0.109375 C 0.519531 -0.222656 0.15625 -0.734375 0.15625 -1.421875 C 0.15625 -2.316406 0.773438 -2.992188 2.015625 -3.453125 C 1.773438 -3.566406 1.617188 -3.707031 1.546875 -3.875 C 1.472656 -4.050781 1.4375 -4.328125 1.4375 -4.703125 C 1.4375 -5.085938 1.613281 -5.492188 1.96875 -5.921875 C 2.320312 -6.347656 2.753906 -6.695312 3.265625 -6.96875 C 4.410156 -7.59375 5.4375 -7.90625 6.34375 -7.90625 C 6.550781 -7.90625 6.765625 -7.851562 6.984375 -7.75 C 7.210938 -7.644531 7.328125 -7.5 7.328125 -7.3125 Z M 7.328125 -7.3125 "/></g></g></g><g fill="#ffffff" fill-opacity="1"><g transform="translate(217.31419, 246.206189)"><g><path d="M 7.328125 -7.3125 C 7.328125 -6.875 7.148438 -6.492188 6.796875 -6.171875 C 6.453125 -5.847656 6.054688 -5.6875 5.609375 -5.6875 C 5.472656 -5.6875 5.378906 -5.71875 5.328125 -5.78125 C 5.285156 -5.851562 5.265625 -5.941406 5.265625 -6.046875 C 5.265625 -6.160156 5.273438 -6.269531 5.296875 -6.375 C 5.066406 -6.300781 4.804688 -6.179688 4.515625 -6.015625 C 4.234375 -5.847656 3.882812 -5.601562 3.46875 -5.28125 C 3.050781 -4.96875 2.84375 -4.734375 2.84375 -4.578125 C 2.84375 -4.523438 2.914062 -4.5 3.0625 -4.5 C 3.21875 -4.5 3.457031 -4.550781 3.78125 -4.65625 C 4.101562 -4.769531 4.328125 -4.828125 4.453125 -4.828125 C 4.578125 -4.828125 4.660156 -4.820312 4.703125 -4.8125 C 4.785156 -4.757812 4.875 -4.65625 4.96875 -4.5 C 5.070312 -4.351562 5.125 -4.234375 5.125 -4.140625 C 5.125 -4.054688 5.035156 -3.941406 4.859375 -3.796875 C 4.691406 -3.648438 4.5 -3.539062 4.28125 -3.46875 C 4.070312 -3.394531 3.929688 -3.335938 3.859375 -3.296875 C 2.484375 -2.535156 1.796875 -2.007812 1.796875 -1.71875 C 1.796875 -1.207031 2.226562 -0.953125 3.09375 -0.953125 C 3.644531 -0.953125 4.203125 -1.128906 4.765625 -1.484375 C 5.242188 -1.785156 5.671875 -2.085938 6.046875 -2.390625 C 6.429688 -2.703125 6.671875 -2.894531 6.765625 -2.96875 C 6.867188 -3.039062 6.945312 -3.078125 7 -3.078125 C 7.164062 -3.078125 7.25 -2.882812 7.25 -2.5 C 7.25 -2.125 7.226562 -1.875 7.1875 -1.75 C 7.144531 -1.632812 7.015625 -1.488281 6.796875 -1.3125 C 5.398438 -0.1875 4.082031 0.375 2.84375 0.375 C 2.175781 0.375 1.644531 0.285156 1.25 0.109375 C 0.519531 -0.222656 0.15625 -0.734375 0.15625 -1.421875 C 0.15625 -2.316406 0.773438 -2.992188 2.015625 -3.453125 C 1.773438 -3.566406 1.617188 -3.707031 1.546875 -3.875 C 1.472656 -4.050781 1.4375 -4.328125 1.4375 -4.703125 C 1.4375 -5.085938 1.613281 -5.492188 1.96875 -5.921875 C 2.320312 -6.347656 2.753906 -6.695312 3.265625 -6.96875 C 4.410156 -7.59375 5.4375 -7.90625 6.34375 -7.90625 C 6.550781 -7.90625 6.765625 -7.851562 6.984375 -7.75 C 7.210938 -7.644531 7.328125 -7.5 7.328125 -7.3125 Z M 7.328125 -7.3125 "/></g></g></g><g fill="#ffffff" fill-opacity="1"><g transform="translate(223.659366, 246.206189)"><g><path d="M 5.703125 -1.5 C 5.703125 -1.21875 5.898438 -1.078125 6.296875 -1.078125 C 6.503906 -1.078125 6.765625 -1.179688 7.078125 -1.390625 C 7.390625 -1.597656 7.675781 -1.828125 7.9375 -2.078125 C 8.613281 -2.742188 8.992188 -3.078125 9.078125 -3.078125 C 9.253906 -3.078125 9.34375 -2.832031 9.34375 -2.34375 C 9.34375 -1.851562 9.1875 -1.519531 8.875 -1.34375 C 7.945312 -0.5 7.226562 0.015625 6.71875 0.203125 C 6.4375 0.296875 6.117188 0.335938 5.765625 0.328125 C 5.421875 0.328125 5.078125 0.179688 4.734375 -0.109375 C 4.398438 -0.410156 4.234375 -0.769531 4.234375 -1.1875 C 4.234375 -1.601562 4.34375 -2.078125 4.5625 -2.609375 C 4.789062 -3.148438 5.019531 -3.609375 5.25 -3.984375 C 5.476562 -4.367188 5.757812 -4.8125 6.09375 -5.3125 C 6.4375 -5.820312 6.617188 -6.140625 6.640625 -6.265625 L 6.625 -6.28125 C 6.40625 -6.257812 5.867188 -5.832031 5.015625 -5 C 4.171875 -4.175781 3.472656 -3.457031 2.921875 -2.84375 C 2.367188 -2.238281 1.707031 -1.425781 0.9375 -0.40625 C 0.71875 -0.125 0.539062 0.015625 0.40625 0.015625 C 0.269531 0.015625 0.0859375 -0.0234375 -0.140625 -0.109375 C -0.367188 -0.203125 -0.507812 -0.265625 -0.5625 -0.296875 C -0.613281 -0.335938 -0.640625 -0.394531 -0.640625 -0.46875 C -0.640625 -0.550781 -0.617188 -0.648438 -0.578125 -0.765625 C -0.535156 -0.878906 -0.488281 -0.972656 -0.4375 -1.046875 C -0.394531 -1.117188 -0.328125 -1.234375 -0.234375 -1.390625 C -0.140625 -1.546875 0.0507812 -1.875 0.34375 -2.375 C 0.632812 -2.882812 1.078125 -3.640625 1.671875 -4.640625 C 2.273438 -5.648438 2.632812 -6.257812 2.75 -6.46875 C 3 -6.894531 3.203125 -7.207031 3.359375 -7.40625 C 3.648438 -7.769531 4.144531 -7.953125 4.84375 -7.953125 C 5 -7.953125 5.078125 -7.859375 5.078125 -7.671875 C 5.078125 -7.359375 4.796875 -6.78125 4.234375 -5.9375 L 3.8125 -5.328125 C 4.945312 -6.578125 5.898438 -7.367188 6.671875 -7.703125 C 7.046875 -7.859375 7.382812 -7.9375 7.6875 -7.9375 C 7.988281 -7.9375 8.226562 -7.851562 8.40625 -7.6875 C 8.59375 -7.53125 8.6875 -7.351562 8.6875 -7.15625 C 8.6875 -6.957031 8.613281 -6.71875 8.46875 -6.4375 C 8.332031 -6.164062 8.195312 -5.921875 8.0625 -5.703125 C 7.925781 -5.484375 7.742188 -5.207031 7.515625 -4.875 C 7.285156 -4.539062 7.160156 -4.359375 7.140625 -4.328125 C 7.117188 -4.296875 7.066406 -4.21875 6.984375 -4.09375 C 6.898438 -3.96875 6.835938 -3.875 6.796875 -3.8125 C 6.765625 -3.757812 6.703125 -3.660156 6.609375 -3.515625 C 6.515625 -3.367188 6.441406 -3.242188 6.390625 -3.140625 C 6.335938 -3.046875 6.269531 -2.925781 6.1875 -2.78125 C 6.101562 -2.632812 6.035156 -2.507812 5.984375 -2.40625 C 5.941406 -2.300781 5.894531 -2.191406 5.84375 -2.078125 C 5.75 -1.847656 5.703125 -1.65625 5.703125 -1.5 Z M 5.703125 -1.5 "/></g></g></g><g fill="#ffffff" fill-opacity="1"><g transform="translate(231.468814, 246.206189)"><g><path d="M 8.0625 -7.421875 C 8.550781 -7.421875 8.796875 -7.253906 8.796875 -6.921875 C 8.796875 -6.734375 8.753906 -6.597656 8.671875 -6.515625 C 8.585938 -6.429688 8.40625 -6.148438 8.125 -5.671875 C 7.851562 -5.191406 7.546875 -4.578125 7.203125 -3.828125 C 6.867188 -3.085938 6.65625 -2.453125 6.5625 -1.921875 C 6.539062 -1.859375 6.53125 -1.769531 6.53125 -1.65625 C 6.53125 -1.289062 6.628906 -1.109375 6.828125 -1.109375 C 7.023438 -1.109375 7.253906 -1.203125 7.515625 -1.390625 C 7.785156 -1.578125 8.023438 -1.773438 8.234375 -1.984375 C 8.441406 -2.203125 8.644531 -2.421875 8.84375 -2.640625 C 9.039062 -2.859375 9.160156 -2.984375 9.203125 -3.015625 C 9.242188 -3.046875 9.300781 -3.0625 9.375 -3.0625 C 9.5 -3.0625 9.570312 -2.96875 9.59375 -2.78125 C 9.625 -2.59375 9.640625 -2.394531 9.640625 -2.1875 C 9.640625 -1.988281 9.617188 -1.851562 9.578125 -1.78125 C 9.390625 -1.40625 8.972656 -0.957031 8.328125 -0.4375 C 7.691406 0.0820312 7.109375 0.34375 6.578125 0.34375 C 6.054688 0.34375 5.671875 0.1875 5.421875 -0.125 C 5.179688 -0.445312 5.0625 -0.800781 5.0625 -1.1875 C 5.0625 -1.582031 5.125 -1.925781 5.25 -2.21875 C 4.707031 -1.507812 4.085938 -0.910156 3.390625 -0.421875 C 2.691406 0.0546875 2.117188 0.296875 1.671875 0.296875 C 1.234375 0.296875 0.875 0.164062 0.59375 -0.09375 C 0.238281 -0.425781 0.0625 -0.882812 0.0625 -1.46875 C 0.0625 -2.0625 0.191406 -2.65625 0.453125 -3.25 C 0.710938 -3.851562 1.054688 -4.398438 1.484375 -4.890625 C 1.921875 -5.378906 2.394531 -5.828125 2.90625 -6.234375 C 3.988281 -7.078125 4.988281 -7.5 5.90625 -7.5 C 6.25 -7.5 6.53125 -7.441406 6.75 -7.328125 C 6.976562 -7.210938 7.117188 -7.066406 7.171875 -6.890625 C 7.328125 -7.117188 7.457031 -7.265625 7.5625 -7.328125 C 7.675781 -7.390625 7.84375 -7.421875 8.0625 -7.421875 Z M 6.765625 -6.34375 C 5.648438 -6.34375 4.492188 -5.722656 3.296875 -4.484375 C 2.878906 -4.035156 2.492188 -3.503906 2.140625 -2.890625 C 1.785156 -2.273438 1.609375 -1.851562 1.609375 -1.625 C 1.609375 -1.394531 1.671875 -1.28125 1.796875 -1.28125 C 1.984375 -1.28125 2.492188 -1.640625 3.328125 -2.359375 C 4.160156 -3.078125 4.710938 -3.609375 4.984375 -3.953125 C 5.285156 -4.328125 5.878906 -5.125 6.765625 -6.34375 Z M 6.765625 -6.34375 "/></g></g></g><g fill="#ffffff" fill-opacity="1"><g transform="translate(239.610163, 246.206189)"><g/></g></g><g fill="#ffffff" fill-opacity="1"><g transform="translate(243.758932, 246.206189)"><g><path d="M 7.203125 -9.828125 C 6.546875 -8.722656 6.144531 -8.171875 6 -8.171875 C 5.925781 -8.171875 5.820312 -8.210938 5.6875 -8.296875 C 5.5625 -8.390625 5.492188 -8.484375 5.484375 -8.578125 C 5.472656 -8.671875 5.679688 -9.117188 6.109375 -9.921875 C 5.347656 -9.773438 4.847656 -9.703125 4.609375 -9.703125 C 4.378906 -9.703125 4.265625 -9.753906 4.265625 -9.859375 C 4.265625 -10.378906 4.941406 -10.859375 6.296875 -11.296875 L 5.96875 -11.71875 C 5.820312 -11.8125 5.6875 -11.960938 5.5625 -12.171875 C 5.445312 -12.390625 5.390625 -12.570312 5.390625 -12.71875 C 5.390625 -12.875 5.429688 -13.015625 5.515625 -13.140625 C 5.597656 -13.273438 5.726562 -13.34375 5.90625 -13.34375 C 6.09375 -13.34375 6.347656 -13.148438 6.671875 -12.765625 L 7.25 -11.96875 C 7.476562 -12.375 7.671875 -12.800781 7.828125 -13.25 C 7.984375 -13.570312 8.253906 -13.734375 8.640625 -13.734375 C 8.804688 -13.734375 8.929688 -13.703125 9.015625 -13.640625 C 9.109375 -13.585938 9.15625 -13.507812 9.15625 -13.40625 C 9.15625 -13.300781 8.921875 -12.820312 8.453125 -11.96875 C 9.335938 -12.15625 9.847656 -12.3125 9.984375 -12.4375 C 10.054688 -12.539062 10.125 -12.59375 10.1875 -12.59375 C 10.257812 -12.59375 10.320312 -12.53125 10.375 -12.40625 C 10.425781 -12.289062 10.453125 -12.1875 10.453125 -12.09375 C 10.453125 -11.414062 9.785156 -10.882812 8.453125 -10.5 C 8.679688 -10.21875 8.835938 -9.984375 8.921875 -9.796875 C 9.015625 -9.617188 9.0625 -9.398438 9.0625 -9.140625 C 9.0625 -8.890625 9.003906 -8.664062 8.890625 -8.46875 C 8.785156 -8.269531 8.640625 -8.171875 8.453125 -8.171875 C 8.273438 -8.171875 8.132812 -8.285156 8.03125 -8.515625 C 7.757812 -8.921875 7.484375 -9.359375 7.203125 -9.828125 Z M 7.203125 -9.828125 "/></g></g></g><g fill="#ffffff" fill-opacity="1"><g transform="translate(251.084493, 246.206189)"><g/></g></g></svg>